<?xml version="1.0" standalone="no"?>
<!DOCTYPE svg PUBLIC "-//W3C//DTD SVG 20010904//EN"
 "http://www.w3.org/TR/2001/REC-SVG-20010904/DTD/svg10.dtd">
<svg version="1.0" xmlns="http://www.w3.org/2000/svg"
 width="512.000000pt" height="512.000000pt" viewBox="0 0 512.000000 512.000000"
 preserveAspectRatio="xMidYMid meet">

<g transform="translate(0.000000,512.000000) scale(0.100000,-0.100000)"
fill="#000000" stroke="none">
<path d="M4540 5071 c-412 -172 -675 -320 -827 -464 -113 -107 -163 -230 -163
-397 0 -100 18 -178 64 -275 l32 -70 -292 -600 c-223 -458 -297 -601 -311
-603 -11 -2 -46 7 -79 19 -44 17 -75 38 -119 83 -135 137 -183 296 -140 461
26 96 63 153 181 270 118 117 164 189 200 310 27 91 25 258 -5 355 -69 225
-246 394 -466 446 -97 22 -371 15 -545 -16 -922 -162 -1651 -855 -1855 -1765
-15 -65 -33 -169 -41 -230 -17 -127 -19 -430 -4 -555 94 -775 558 -1439 1250
-1789 225 -114 453 -187 710 -228 158 -24 499 -24 657 1 981 153 1739 875
1932 1841 59 294 54 716 -10 909 -52 156 -187 284 -351 333 -32 9 -90 15 -145
15 -92 0 -93 0 -82 21 6 12 54 100 106 195 79 143 99 172 118 172 12 0 57 9
99 20 327 83 508 362 507 780 0 205 -39 394 -127 611 -54 135 -75 172 -109
187 -41 19 -63 14 -185 -37z m124 -262 c61 -157 88 -291 93 -459 5 -166 -5
-240 -47 -352 -65 -175 -201 -274 -390 -285 -108 -7 -180 8 -279 58 -190 95
-300 270 -289 462 8 149 62 225 243 343 146 94 601 319 630 310 6 -1 23 -36
39 -77z m-2011 -426 c174 -82 282 -289 250 -477 -20 -115 -50 -165 -181 -294
-103 -102 -123 -128 -159 -202 -118 -240 -89 -500 79 -721 155 -203 416 -287
648 -209 35 12 228 110 429 219 201 109 375 201 386 205 119 45 261 11 347
-82 56 -61 77 -115 95 -250 19 -146 13 -472 -12 -607 -63 -347 -192 -646 -398
-925 -84 -113 -290 -323 -402 -407 -622 -468 -1424 -562 -2135 -249 -519 228
-953 706 -1133 1246 -77 232 -107 421 -107 680 1 340 69 640 215 937 203 416
529 744 945 953 297 148 599 221 910 217 152 -2 156 -3 223 -34z m1192 -729
c62 -44 143 -86 213 -109 29 -9 52 -21 50 -25 -2 -4 -70 -129 -151 -277 l-148
-269 -246 -132 c-135 -73 -248 -131 -250 -129 -5 5 469 977 476 977 3 0 29
-16 56 -36z"/>
<path d="M1805 4050 c-207 -54 -377 -187 -464 -361 -95 -189 -79 -377 43 -507
85 -91 191 -132 341 -132 431 0 794 448 636 785 -88 189 -319 278 -556 215z
m281 -208 c204 -105 114 -407 -161 -543 -78 -39 -95 -43 -176 -47 -138 -7
-220 33 -255 123 -65 171 111 414 347 480 75 21 192 15 245 -13z"/>
<path d="M933 3018 c-184 -21 -330 -178 -341 -368 -12 -211 122 -383 330 -421
264 -49 508 194 459 458 -40 218 -227 357 -448 331z m149 -219 c57 -29 108
-110 108 -173 0 -107 -102 -206 -210 -206 -48 0 -127 46 -157 91 -24 37 -28
52 -28 114 0 59 4 78 24 107 62 90 165 116 263 67z"/>
<path d="M3808 2381 c-76 -25 -118 -52 -177 -116 -114 -125 -132 -322 -44
-472 37 -63 124 -138 191 -164 86 -33 191 -36 271 -9 117 39 191 106 245 220
28 58 31 74 31 160 0 86 -3 101 -31 161 -18 37 -48 85 -68 107 -104 115 -270
160 -418 113z m213 -204 c24 -13 57 -43 74 -66 25 -36 30 -52 30 -104 0 -77
-26 -131 -83 -171 -129 -91 -311 3 -312 162 -1 152 158 249 291 179z"/>
<path d="M1079 1872 c-110 -37 -210 -129 -251 -231 -18 -45 -23 -76 -23 -156
0 -93 2 -105 32 -166 66 -133 192 -219 334 -227 208 -12 377 119 420 326 26
123 -24 276 -118 363 -103 95 -268 133 -394 91z m231 -216 c55 -36 95 -118 87
-181 -18 -165 -204 -242 -329 -137 -82 69 -90 209 -15 291 61 66 179 79 257
27z"/>
<path d="M3187 1440 c-138 -35 -253 -146 -292 -284 -54 -185 38 -385 215 -470
60 -29 73 -31 170 -31 99 0 110 2 171 32 81 40 150 111 190 196 118 253 -60
549 -339 563 -42 2 -94 -1 -115 -6z m154 -202 c55 -19 88 -49 116 -105 21 -45
25 -62 20 -106 -25 -203 -303 -243 -382 -55 -65 157 87 321 246 266z"/>
<path d="M2055 1226 c-247 -61 -375 -329 -267 -559 38 -81 105 -150 188 -192
55 -28 67 -30 169 -30 98 0 116 3 167 27 160 75 259 258 230 425 -42 236 -262
385 -487 329z m150 -197 c75 -21 145 -115 145 -195 0 -63 -51 -144 -110 -174
-43 -22 -122 -26 -167 -9 -38 14 -92 67 -109 106 -33 76 -4 189 60 237 58 44
112 54 181 35z"/>
</g>
</svg>
