<?xml version="1.0" standalone="no"?>
<!DOCTYPE svg PUBLIC "-//W3C//DTD SVG 20010904//EN"
 "http://www.w3.org/TR/2001/REC-SVG-20010904/DTD/svg10.dtd">
<svg version="1.0" xmlns="http://www.w3.org/2000/svg"
 width="512.000000pt" height="512.000000pt" viewBox="0 0 512.000000 512.000000"
 preserveAspectRatio="xMidYMid meet">

<g transform="translate(0.000000,512.000000) scale(0.100000,-0.100000)"
fill="#000000" stroke="none">
<path d="M4332 4732 c-16 -11 -192 -439 -192 -469 0 -46 53 -69 83 -35 21 24
187 435 187 464 0 41 -42 62 -78 40z"/>
<path d="M4508 4273 c-119 -83 -138 -100 -138 -123 0 -15 9 -35 20 -45 26 -23
32 -20 190 89 128 89 155 120 134 154 -25 40 -63 26 -206 -75z"/>
<path d="M1595 4174 c-615 -30 -738 -44 -929 -105 -164 -52 -293 -203 -340
-399 -36 -151 -38 -220 -31 -1355 7 -1202 13 -1387 45 -1505 39 -138 104 -221
214 -275 101 -49 185 -62 501 -80 943 -51 1447 -68 2070 -69 587 -1 607 0 810
59 176 51 271 118 328 231 57 113 64 166 87 664 31 666 28 2235 -5 2391 -28
138 -105 254 -216 328 -114 76 -131 79 -667 97 -433 14 -1696 26 -1867 18z
m1700 -119 c308 -8 588 -19 623 -24 85 -13 146 -44 210 -108 77 -76 110 -154
122 -284 17 -185 24 -1319 11 -1794 -18 -654 -26 -789 -50 -857 -39 -112 -128
-209 -230 -250 l-56 -23 -1215 2 c-668 2 -1355 6 -1526 11 l-311 8 -65 32
c-81 40 -149 110 -191 200 l-32 67 0 1335 0 1335 23 62 c49 129 167 230 293
253 85 15 475 41 757 50 313 10 891 5 1637 -15z"/>
<path d="M2948 3313 c-8 -10 -249 -427 -534 -928 -556 -974 -552 -967 -491
-989 22 -8 31 -6 47 9 25 26 1070 1860 1070 1879 0 41 -64 61 -92 29z"/>
<path d="M1556 3150 c-52 -46 -230 -248 -324 -368 -109 -139 -312 -444 -312
-468 0 -11 4 -24 8 -30 4 -6 174 -135 377 -285 315 -233 375 -274 405 -274 29
0 36 4 45 29 9 26 7 31 -30 63 -22 19 -148 114 -280 211 -132 96 -277 203
-322 237 l-82 62 100 149 c141 208 261 358 433 541 47 51 86 100 86 108 0 19
-35 55 -55 55 -8 0 -30 -14 -49 -30z"/>
<path d="M3238 3049 c-36 -20 -21 -60 65 -169 148 -189 287 -402 411 -632 l47
-87 -38 -24 c-21 -13 -166 -101 -323 -196 -394 -239 -394 -239 -398 -278 -3
-27 1 -35 23 -45 22 -10 32 -9 54 4 54 32 669 406 729 444 36 22 65 48 68 60
15 58 -283 556 -486 814 -46 58 -88 108 -94 112 -15 11 -38 9 -58 -3z"/>
<path d="M4533 3863 c-32 -4 -33 -5 -33 -55 l0 -51 152 6 c129 5 154 8 165 23
17 24 16 49 -3 68 -12 13 -38 16 -132 14 -64 0 -132 -3 -149 -5z"/>
</g>
</svg>
